<svg xmlns="http://www.w3.org/2000/svg" width="64" height="64" fill="none" viewBox="0 0 64 64">
  <rect width="64" height="64" rx="18" fill="#0066cc" />
  <rect x="4" y="4" width="56" height="56" rx="9" fill="#ffffff" />
  <rect x="8" y="18" width="13" height="5" rx="2.5" fill="#0066cc" />
  <rect x="8" y="27" width="11" height="5" rx="2.5" fill="#0066cc" />
  <rect x="8" y="36" width="12" height="5" rx="2.5" fill="#0066cc" />
  <rect x="8" y="45" width="9" height="5" rx="2.5" fill="#0066cc" />
  <path d="M26 23v18l13-9-13-9Z" fill="#0066cc" />
  <path d="M40 24c2 2 3 4.7 3 8s-1 6-3 8" stroke="#8fd3ff" stroke-linecap="round" stroke-linejoin="round" stroke-width="4" />
  <path d="M43 20c3 3.2 4.5 7.2 4.5 12S46 40.8 43 44" stroke="#8fd3ff" stroke-linecap="round" stroke-linejoin="round" stroke-width="4" />
  <path d="M46 16c3.3 4 5 9.3 5 16s-1.7 12-5 16" stroke="#8fd3ff" stroke-linecap="round" stroke-linejoin="round" stroke-width="4" />
</svg>
